<svg width="25" height="25" viewBox="0 0 25 25" fill="none" xmlns="http://www.w3.org/2000/svg">
<path d="M7.5531 17.3855C6.89201 17.0063 6.44531 16.2939 6.44531 15.4785C6.44531 12.113 9.18331 9.375 12.5488 9.375H15.064L15.1825 7.42188H0.930786L1.95446 24.3118C1.97792 24.6984 2.29816 25 2.68555 25H7.17964C6.71883 24.3875 6.44531 23.6265 6.44531 22.8027C6.44531 21.8531 7.05109 21.0423 7.89642 20.7361C7.59678 20.2766 7.42188 19.7289 7.42188 19.1406C7.42188 18.5518 7.59716 18.0035 7.89738 17.5436C7.65858 17.4898 7.52602 17.437 7.5531 17.3855V17.3855Z" fill="#FA713F" fill-opacity="0.5"/>
<path d="M8.05588 5.95722C8.05645 5.95722 8.05702 5.95703 8.05759 5.95703H15.3809C15.7854 5.95703 16.1133 5.62916 16.1133 5.22461C16.1133 4.82006 15.7854 4.49219 15.3809 4.49219H9.40876L11.3831 1.46484H13.916C14.3206 1.46484 14.6484 1.13697 14.6484 0.732422C14.6484 0.327873 14.3206 0 13.916 0H10.9863C10.7388 0 10.508 0.124931 10.3729 0.33226L7.65991 4.49219H0.732422C0.327873 4.49219 0 4.82006 0 5.22461C0 5.62916 0.327873 5.95703 0.732422 5.95703H8.05321C8.05416 5.95703 8.05511 5.95722 8.05588 5.95722Z" fill="#FA713F" fill-opacity="0.5"/>
<path d="M7.91016 15.4785C7.91016 15.8831 8.23803 16.2109 8.64258 16.2109H24.2676C24.6721 16.2109 25 15.8831 25 15.4785C25 12.9208 22.9191 10.8398 20.3613 10.8398H12.5488C9.99107 10.8398 7.91016 12.9208 7.91016 15.4785Z" fill="#FA713F"/>
<path d="M10.3516 17.6758C9.54247 17.6758 8.88672 18.3315 8.88672 19.1406C8.88672 19.9497 9.54247 20.6055 10.3516 20.6055H22.5586C23.3677 20.6055 24.0234 19.9497 24.0234 19.1406C24.0234 18.3315 23.3677 17.6758 22.5586 17.6758H10.3516Z" fill="#FA713F"/>
<path d="M24.2676 22.0703H8.64258C8.23803 22.0703 7.91016 22.3982 7.91016 22.8027C7.91016 24.0143 8.89587 25 10.1074 25H22.8027C24.0143 25 25 24.0143 25 22.8027C25 22.3982 24.6721 22.0703 24.2676 22.0703Z" fill="#FA713F"/>
</svg>
